<mxfile host="app.diagrams.net" modified="2021-02-19T10:56:37.627Z" agent="5.0 (Macintosh; Intel Mac OS X 10_14_6) AppleWebKit/537.36 (KHTML, like Gecko) Chrome/88.0.4324.96 Safari/537.36" etag="E_OHuEraoiS3ThP_jTyM" version="14.4.2" type="github">
  <diagram id="5Ww8lvVIlqgymlxYhhgw" name="Page-1">
    <mxGraphModel dx="851" dy="1154" grid="1" gridSize="10" guides="1" tooltips="1" connect="1" arrows="1" fold="1" page="1" pageScale="1" pageWidth="827" pageHeight="1169" math="0" shadow="0">
      <root>
        <mxCell id="0" />
        <mxCell id="1" parent="0" />
        <mxCell id="SGiw52yLNVVxTSBp6WHI-21" style="edgeStyle=orthogonalEdgeStyle;rounded=0;orthogonalLoop=1;jettySize=auto;html=1;exitX=0.75;exitY=1;exitDx=0;exitDy=0;entryX=0.25;entryY=1;entryDx=0;entryDy=0;fontSize=14;" edge="1" parent="1" source="SGiw52yLNVVxTSBp6WHI-1" target="SGiw52yLNVVxTSBp6WHI-8">
          <mxGeometry relative="1" as="geometry" />
        </mxCell>
        <mxCell id="SGiw52yLNVVxTSBp6WHI-1" value="work dir" style="rounded=0;whiteSpace=wrap;html=1;" vertex="1" parent="1">
          <mxGeometry x="120" y="130" width="120" height="60" as="geometry" />
        </mxCell>
        <mxCell id="SGiw52yLNVVxTSBp6WHI-5" style="edgeStyle=orthogonalEdgeStyle;rounded=0;orthogonalLoop=1;jettySize=auto;html=1;exitX=0;exitY=0.75;exitDx=0;exitDy=0;entryX=1;entryY=0.75;entryDx=0;entryDy=0;" edge="1" parent="1" source="SGiw52yLNVVxTSBp6WHI-2" target="SGiw52yLNVVxTSBp6WHI-1">
          <mxGeometry relative="1" as="geometry" />
        </mxCell>
        <mxCell id="SGiw52yLNVVxTSBp6WHI-2" value="stage" style="rounded=0;whiteSpace=wrap;html=1;" vertex="1" parent="1">
          <mxGeometry x="360" y="130" width="120" height="60" as="geometry" />
        </mxCell>
        <mxCell id="SGiw52yLNVVxTSBp6WHI-3" value="" style="endArrow=classic;html=1;entryX=0;entryY=0.25;entryDx=0;entryDy=0;exitX=1;exitY=0.25;exitDx=0;exitDy=0;" edge="1" parent="1" source="SGiw52yLNVVxTSBp6WHI-1" target="SGiw52yLNVVxTSBp6WHI-2">
          <mxGeometry width="50" height="50" relative="1" as="geometry">
            <mxPoint x="250" y="180" as="sourcePoint" />
            <mxPoint x="300" y="130" as="targetPoint" />
          </mxGeometry>
        </mxCell>
        <mxCell id="SGiw52yLNVVxTSBp6WHI-6" value="stage" style="rounded=0;whiteSpace=wrap;html=1;" vertex="1" parent="1">
          <mxGeometry x="360" y="130" width="120" height="60" as="geometry" />
        </mxCell>
        <mxCell id="SGiw52yLNVVxTSBp6WHI-7" style="edgeStyle=orthogonalEdgeStyle;rounded=0;orthogonalLoop=1;jettySize=auto;html=1;exitX=0;exitY=0.75;exitDx=0;exitDy=0;entryX=1;entryY=0.75;entryDx=0;entryDy=0;" edge="1" parent="1" source="SGiw52yLNVVxTSBp6WHI-8" target="SGiw52yLNVVxTSBp6WHI-6">
          <mxGeometry relative="1" as="geometry" />
        </mxCell>
        <mxCell id="SGiw52yLNVVxTSBp6WHI-22" style="edgeStyle=orthogonalEdgeStyle;rounded=0;orthogonalLoop=1;jettySize=auto;html=1;exitX=0.75;exitY=1;exitDx=0;exitDy=0;entryX=0.25;entryY=1;entryDx=0;entryDy=0;fontSize=14;" edge="1" parent="1" source="SGiw52yLNVVxTSBp6WHI-8" target="SGiw52yLNVVxTSBp6WHI-1">
          <mxGeometry relative="1" as="geometry">
            <Array as="points">
              <mxPoint x="690" y="230" />
              <mxPoint x="150" y="230" />
            </Array>
          </mxGeometry>
        </mxCell>
        <mxCell id="SGiw52yLNVVxTSBp6WHI-8" value="history" style="rounded=0;whiteSpace=wrap;html=1;" vertex="1" parent="1">
          <mxGeometry x="600" y="130" width="120" height="60" as="geometry" />
        </mxCell>
        <mxCell id="SGiw52yLNVVxTSBp6WHI-9" value="" style="endArrow=classic;html=1;entryX=0;entryY=0.25;entryDx=0;entryDy=0;exitX=1;exitY=0.25;exitDx=0;exitDy=0;" edge="1" parent="1" source="SGiw52yLNVVxTSBp6WHI-6" target="SGiw52yLNVVxTSBp6WHI-8">
          <mxGeometry width="50" height="50" relative="1" as="geometry">
            <mxPoint x="490" y="180" as="sourcePoint" />
            <mxPoint x="540" y="130" as="targetPoint" />
          </mxGeometry>
        </mxCell>
        <mxCell id="SGiw52yLNVVxTSBp6WHI-14" value="对六条线解释" style="text;html=1;align=center;verticalAlign=middle;resizable=0;points=[];autosize=1;" vertex="1" parent="1">
          <mxGeometry x="369" y="80" width="90" height="20" as="geometry" />
        </mxCell>
        <mxCell id="SGiw52yLNVVxTSBp6WHI-15" value="add" style="text;html=1;align=center;verticalAlign=middle;resizable=0;points=[];autosize=1;fillColor=#fff2cc;strokeColor=#d6b656;fontStyle=1;fontSize=14;" vertex="1" parent="1">
          <mxGeometry x="280" y="120" width="40" height="20" as="geometry" />
        </mxCell>
        <mxCell id="SGiw52yLNVVxTSBp6WHI-16" value="checkout" style="text;html=1;align=center;verticalAlign=middle;resizable=0;points=[];autosize=1;fillColor=#fff2cc;strokeColor=#d6b656;fontStyle=1;fontSize=14;" vertex="1" parent="1">
          <mxGeometry x="260" y="180" width="80" height="20" as="geometry" />
        </mxCell>
        <mxCell id="SGiw52yLNVVxTSBp6WHI-17" value="commit" style="text;html=1;align=center;verticalAlign=middle;resizable=0;points=[];autosize=1;fillColor=#fff2cc;strokeColor=#d6b656;fontStyle=1;fontSize=14;" vertex="1" parent="1">
          <mxGeometry x="505" y="120" width="70" height="20" as="geometry" />
        </mxCell>
        <mxCell id="SGiw52yLNVVxTSBp6WHI-18" value="reset" style="text;html=1;align=center;verticalAlign=middle;resizable=0;points=[];autosize=1;fillColor=#fff2cc;strokeColor=#d6b656;fontStyle=1;fontSize=14;" vertex="1" parent="1">
          <mxGeometry x="510" y="180" width="50" height="20" as="geometry" />
        </mxCell>
        <mxCell id="SGiw52yLNVVxTSBp6WHI-19" value="checkout" style="text;html=1;align=center;verticalAlign=middle;resizable=0;points=[];autosize=1;fillColor=#fff2cc;strokeColor=#d6b656;fontStyle=1;fontSize=14;" vertex="1" parent="1">
          <mxGeometry x="375" y="230" width="80" height="20" as="geometry" />
        </mxCell>
        <mxCell id="SGiw52yLNVVxTSBp6WHI-20" value="commit" style="text;html=1;align=center;verticalAlign=middle;resizable=0;points=[];autosize=1;fillColor=#fff2cc;strokeColor=#d6b656;fontStyle=1;fontSize=14;" vertex="1" parent="1">
          <mxGeometry x="380" y="200" width="70" height="20" as="geometry" />
        </mxCell>
      </root>
    </mxGraphModel>
  </diagram>
</mxfile>
